<svg xmlns="http://www.w3.org/2000/svg" viewBox="0 0 24 24">
  <path fill="currentColor" d="m20.12,5.75h-1.25v14.37c0,.26-.05.5-.15.73s-.23.43-.4.6-.37.3-.6.4-.47.15-.73.15H7c-.26,0-.5-.05-.73-.15s-.43-.23-.6-.4-.3-.37-.4-.6-.15-.47-.15-.73V5.75h-1.25v-1.25h5v-1.25c0-.18.03-.34.1-.49.07-.15.15-.28.26-.39.11-.11.24-.2.4-.27.16-.07.32-.1.49-.1h3.75c.18,0,.34.03.49.1.15.07.28.15.39.26.11.11.2.24.27.4s.1.32.1.49v1.25h5v1.25Zm-10-1.25h3.75v-1.25h-3.75v1.25Zm7.5,1.25H6.38v14.37c0,.17.06.32.19.44s.27.19.44.19h10c.17,0,.32-.06.44-.19s.19-.27.19-.44V5.75Zm-7.5,12.5h-1.25v-10h1.25v10Zm2.5,0h-1.25v-10h1.25v10Zm2.5,0h-1.25v-10h1.25v10Z"/>
</svg>
